<svg width="547" height="77" viewBox="0 0 547 77" fill="none" xmlns="http://www.w3.org/2000/svg">
<path fill-rule="evenodd" clip-rule="evenodd" d="M73.801 56.2692H60.0479V8.88463H109.685C111.894 8.88463 113.685 10.6755 113.685 12.8846V37.4615C113.685 39.6707 111.894 41.4615 109.685 41.4615H73.801V56.2692ZM69.6758 31.0961L73.8017 26.6538V19.25H100.308C100.86 19.25 101.308 19.6977 101.308 20.25V30.0961C101.308 30.6484 100.86 31.0961 100.308 31.0961H69.6758Z" fill="white"/>
<path fill-rule="evenodd" clip-rule="evenodd" d="M119.186 52.3094V12.8846C119.186 10.6755 120.976 8.88463 123.186 8.88463H168.823C171.032 8.88463 172.823 10.6755 172.823 12.8846V52.7699C172.823 54.9948 171.007 56.7922 168.783 56.7697L123.145 56.3092C120.952 56.287 119.186 54.5028 119.186 52.3094ZM128.813 45.9038L132.939 41.4615V20.25C132.939 19.6977 133.387 19.25 133.939 19.25H159.446C159.998 19.25 160.446 19.6977 160.446 20.25V44.9038C160.446 45.4561 159.998 45.9038 159.446 45.9038H128.813Z" fill="white"/>
<path fill-rule="evenodd" clip-rule="evenodd" d="M222.334 22.2116H229.212L239.216 22.2115C239.768 22.2115 240.216 22.6593 240.216 23.2115V23.6923V44.9038C240.216 45.4561 239.768 45.9038 239.216 45.9038H222.334V22.2116ZM208.581 22.2116H193.078C192.526 22.2116 192.078 22.6593 192.078 23.2116V42.9423L186.577 45.9039L203.082 45.9038H208.581V22.2116ZM208.581 57.75H182.325C180.116 57.75 178.325 55.9591 178.325 53.75V12.8846C178.325 10.6755 180.116 8.88464 182.325 8.88464L204.457 8.88463H249.969C252.178 8.88463 253.969 10.6755 253.969 12.8846V53.75C253.969 55.9591 252.178 57.75 249.969 57.75L227.837 57.75H222.334V77H208.581V57.75Z" fill="white"/>
<path d="M308.98 57.75V45.9038H267.721L273.222 42.9423V22.2115H310.356V8.88463H263.469C261.26 8.88463 259.469 10.6755 259.469 12.8846V53.75C259.469 55.9591 261.26 57.75 263.469 57.75H308.98Z" fill="white"/>
<path d="M369.495 20.7308V8.88463H315.857V20.7308H335.112V56.2692H348.865V26.6539H343.364L348.865 23.6923V20.7308H369.495Z" fill="white"/>
<path fill-rule="evenodd" clip-rule="evenodd" d="M388.748 56.2692H374.995V8.88463H424.633C426.842 8.88463 428.633 10.6755 428.633 12.8846V37.4615C428.633 39.6707 426.842 41.4615 424.633 41.4615H388.748V56.2692ZM384.624 31.0961L388.75 26.6538V19.25H415.256C415.809 19.25 416.256 19.6977 416.256 20.25V30.0961C416.256 30.6484 415.809 31.0961 415.256 31.0961H384.624Z" fill="white"/>
<path fill-rule="evenodd" clip-rule="evenodd" d="M434.136 52.3094V12.8846C434.136 10.6755 435.927 8.88464 438.136 8.88464H483.773C485.982 8.88464 487.773 10.6755 487.773 12.8846V52.7699C487.773 54.9948 485.958 56.7922 483.733 56.7697L438.095 56.3092C435.902 56.2871 434.136 54.5028 434.136 52.3094ZM443.762 45.9038L447.888 41.4615V20.25C447.888 19.6977 448.335 19.25 448.888 19.25H474.394C474.946 19.25 475.394 19.6977 475.394 20.25V44.9038C475.394 45.4561 474.946 45.9038 474.394 45.9038H443.762Z" fill="white"/>
<path d="M493.272 51.2692V8.88463H507.026V41.4615L502.9 45.9038H532.157C532.709 45.9038 533.157 45.4561 533.157 44.9038V8.88463H546.91V51.2692C546.91 54.0307 544.671 56.2692 541.91 56.2692H498.272C495.511 56.2692 493.272 54.0307 493.272 51.2692Z" fill="white"/>
<rect x="512.528" width="16.5038" height="5.92308" fill="white"/>
<path d="M14.4114 55.6004V44.2427H9.60762L14.4114 39.2104V18.8229C14.4114 18.2706 14.8592 17.8229 15.4114 17.8229H39.8324C40.3847 17.8229 40.8324 18.2706 40.8324 18.8229V55.6004H54.0429V11.7582C54.0429 9.54907 52.252 7.75821 50.0429 7.75821H4C1.79086 7.75821 0 9.54908 0 11.7582V55.6004H14.4114Z" fill="white"/>
</svg>
